<svg xmlns="http://www.w3.org/2000/svg" width="22.113" height="17.808" viewBox="0 0 22.113 17.808">
  <g id="chat" transform="translate(0.2 -50.558)">
    <g id="Groupe_3" data-name="Groupe 3" transform="translate(0 50.758)">
      <path id="Tracé_16" data-name="Tracé 16" d="M7.382,60.917H6.444a.511.511,0,0,0-.364.152L3.191,63.958V61.43a.327.327,0,0,0-.007-.077.512.512,0,0,0-.506-.435H1.223a.2.2,0,0,1-.2-.2V51.981a.2.2,0,0,1,.2-.2H15.788a.2.2,0,0,1,.2.2v3.353a.512.512,0,0,0,1.024,0V51.981a1.224,1.224,0,0,0-1.223-1.223H1.223A1.224,1.224,0,0,0,0,51.981v8.739a1.224,1.224,0,0,0,1.223,1.223h.944V65.2a.512.512,0,0,0,.874.362l3.615-3.615h.725a.512.512,0,0,0,0-1.024Z" transform="translate(0 -50.758)" fill="#0a0a0a" stroke="#0a0a0a" stroke-width="0.4"/>
      <path id="Tracé_17" data-name="Tracé 17" d="M225.341,198.491h-10.2a1.224,1.224,0,0,0-1.223,1.223v5.961a1.224,1.224,0,0,0,1.223,1.223h6.383l2.586,2.586a.512.512,0,0,0,.874-.362V206.9h.352a1.224,1.224,0,0,0,1.223-1.223v-5.961A1.224,1.224,0,0,0,225.341,198.491Zm.2,7.184a.2.2,0,0,1-.2.2h-.864a.512.512,0,0,0-.511.483.259.259,0,0,0,0,.029v1.5l-1.86-1.86a.511.511,0,0,0-.364-.152h-6.6a.2.2,0,0,1-.2-.2v-5.961a.2.2,0,0,1,.2-.2h10.2a.2.2,0,0,1,.2.2Z" transform="translate(-204.851 -192.226)" fill="#0a0a0a" stroke="#0a0a0a" stroke-width="0.4"/>
      <path id="Tracé_18" data-name="Tracé 18" d="M351.4,285.53a.512.512,0,1,0,.512.512A.512.512,0,0,0,351.4,285.53Z" transform="translate(-336.005 -275.574)" fill="#0a0a0a" stroke="#0a0a0a" stroke-width="0.4"/>
      <path id="Tracé_19" data-name="Tracé 19" d="M79.084,130.612a.512.512,0,0,0,0,1.024h9.322a.512.512,0,1,0,0-1.024Z" transform="translate(-75.24 -127.226)" fill="#0a0a0a" stroke="#0a0a0a" stroke-width="0.4"/>
      <path id="Tracé_20" data-name="Tracé 20" d="M82.622,210.465H79.084a.512.512,0,0,0,0,1.024h3.538a.512.512,0,1,0,0-1.024Z" transform="translate(-75.24 -203.692)" fill="#0a0a0a" stroke="#0a0a0a" stroke-width="0.4"/>
      <path id="Tracé_21" data-name="Tracé 21" d="M295.271,285.53a.512.512,0,1,0,.512.512A.512.512,0,0,0,295.271,285.53Z" transform="translate(-282.259 -275.574)" fill="#0a0a0a" stroke="#0a0a0a" stroke-width="0.4"/>
      <path id="Tracé_22" data-name="Tracé 22" d="M407.513,285.53a.512.512,0,1,0,.512.512A.512.512,0,0,0,407.513,285.53Z" transform="translate(-389.741 -275.574)" fill="#0a0a0a" stroke="#0a0a0a" stroke-width="0.4"/>
    </g>
  </g>
</svg>
