<svg xmlns="http://www.w3.org/2000/svg" width="17.408" height="17.408" viewBox="0 0 17.408 17.408">
  <path id="iconmonstr-dribbble-1" d="M8.7,0a8.7,8.7,0,1,0,8.7,8.7A8.7,8.7,0,0,0,8.7,0Zm7.17,8.3a15.525,15.525,0,0,0-5.152-.053c-.177-.408-.36-.816-.556-1.219A10.271,10.271,0,0,0,14.19,4.066,7.154,7.154,0,0,1,15.874,8.3ZM13.087,3.017A8.8,8.8,0,0,1,9.471,5.686a33.573,33.573,0,0,0-2.53-3.944,7.088,7.088,0,0,1,6.146,1.275ZM5.46,2.3A32.343,32.343,0,0,1,8.025,6.2a23.068,23.068,0,0,1-6.3.8A7.2,7.2,0,0,1,5.46,2.3ZM1.514,8.7l.009-.186A24.325,24.325,0,0,0,8.74,7.559q.254.517.486,1.039a11.2,11.2,0,0,0-6.047,4.7A7.156,7.156,0,0,1,1.514,8.7Zm2.777,5.665A9.775,9.775,0,0,1,9.8,10a28.387,28.387,0,0,1,1.482,5.411,7.126,7.126,0,0,1-6.993-1.039Zm8.4.312a29.81,29.81,0,0,0-1.393-5,14.482,14.482,0,0,1,4.5.142,7.2,7.2,0,0,1-3.1,4.86Z" fill="#0a0a0a"/>
</svg>
