<svg xmlns="http://www.w3.org/2000/svg" width="15.513" height="16.454" viewBox="0 0 15.513 16.454">
  <path id="github" d="M6.973,13.78C3.421,14.845,3.421,12,2,11.648m9.946,4.262V13.162a2.394,2.394,0,0,0-.668-1.854c2.231-.249,4.575-1.094,4.575-4.973a3.864,3.864,0,0,0-1.065-2.664A3.6,3.6,0,0,0,14.724.992s-.838-.249-2.778,1.051a9.505,9.505,0,0,0-4.973,0C5.033.744,4.2.992,4.2.992a3.6,3.6,0,0,0-.064,2.678A3.865,3.865,0,0,0,3.066,6.356c0,3.85,2.344,4.7,4.575,4.973a2.394,2.394,0,0,0-.668,1.833v2.749" transform="translate(-1.09 -0.207)" fill="none" stroke="#0a0a0a" stroke-linecap="round" stroke-linejoin="round" stroke-width="1.5"/>
</svg>
