<svg xmlns="http://www.w3.org/2000/svg" width="12.692" height="17.814" viewBox="0 0 12.692 17.814">
  <g id="rocket" transform="translate(-75.035 0.205)">
    <g id="Groupe_1" data-name="Groupe 1" transform="translate(76.866 0.001)">
      <path id="Tracé_3" data-name="Tracé 3" d="M242.707,422.314h-1.964c-.166,0-.3-.215-.3-.481s.135-.481.3-.481h1.964c.166,0,.3.215.3.481S242.874,422.314,242.707,422.314Z" transform="translate(-234.921 -407.026)" fill="#0a0a0a" stroke="#0a0a0a" stroke-width="0.4"/>
      <path id="Tracé_4" data-name="Tracé 4" d="M124.621,15.288a.481.481,0,0,1-.476-.419l-.858-6.575a7.8,7.8,0,0,1,2.748-7.234,10.76,10.76,0,0,1,1.446-1,.481.481,0,0,1,.466,0,11.138,11.138,0,0,1,1.526,1.08,7.81,7.81,0,0,1,2.661,7.169.481.481,0,1,1-.951-.146,6.843,6.843,0,0,0-2.326-6.284,11.209,11.209,0,0,0-1.148-.839,10.878,10.878,0,0,0-1.07.765,6.838,6.838,0,0,0-2.4,6.346l0,.011.859,6.58a.481.481,0,0,1-.415.539A.492.492,0,0,1,124.621,15.288Z" transform="translate(-123.195 -0.001)" fill="#0a0a0a" stroke="#0a0a0a" stroke-width="0.4"/>
    </g>
    <path id="Tracé_5" data-name="Tracé 5" d="M91.955,316.378l-.547-4.193-1.19,1.218a2.948,2.948,0,0,0-.839,2.06v2.6l2.584-1.683h-.008Z" transform="translate(-13.663 -301.571)" fill="none" stroke="#0a0a0a" stroke-width="0.4"/>
    <path id="Tracé_6" data-name="Tracé 6" d="M75.716,304.88a.481.481,0,0,1-.481-.481v-2.6a3.41,3.41,0,0,1,.976-2.4l1.19-1.218a.481.481,0,0,1,.821.274l.536,4.108,0,.01a.481.481,0,0,1-.2.54L75.978,304.8A.48.48,0,0,1,75.716,304.88Zm1.68-5.311-.5.509a2.454,2.454,0,0,0-.7,1.724v1.711l1.58-1.029Z" transform="translate(0 -287.909)" fill="#0a0a0a" stroke="#0a0a0a" stroke-width="0.4"/>
    <path id="Tracé_7" data-name="Tracé 7" d="M348.366,313.44l-1.188-1.216-.547,4.191h-.009l2.584,1.683v-2.6A2.948,2.948,0,0,0,348.366,313.44Z" transform="translate(-262.159 -301.608)" fill="none" stroke="#0a0a0a" stroke-width="0.4"/>
    <path id="Tracé_8" data-name="Tracé 8" d="M335.544,304.915a.48.48,0,0,1-.263-.078l-2.584-1.683a.481.481,0,0,1-.2-.54l.006-.018.535-4.1a.481.481,0,0,1,.821-.274l1.188,1.216a3.41,3.41,0,0,1,.976,2.4v2.6a.481.481,0,0,1-.481.481Zm-2.059-2.4,1.578,1.028v-1.711a2.454,2.454,0,0,0-.7-1.724l-.5-.507Z" transform="translate(-248.497 -287.943)" fill="#0a0a0a" stroke="#0a0a0a" stroke-width="0.4"/>
    <path id="Tracé_9" data-name="Tracé 9" d="M217.578,377.375l-1.352-2.12,1.352-2.12,1.352,2.12Z" transform="translate(-136.197 -360.447)" fill="none" stroke="#0a0a0a" stroke-width="0.4"/>
    <path id="Tracé_10" data-name="Tracé 10" d="M203.916,364.192a.481.481,0,0,1-.405-.222l-1.352-2.12a.481.481,0,0,1,0-.517l1.352-2.12a.481.481,0,0,1,.811,0l1.352,2.12a.481.481,0,0,1,0,.517l-1.352,2.12A.481.481,0,0,1,203.916,364.192Zm-.782-2.6.782,1.226.782-1.226-.782-1.226Z" transform="translate(-122.535 -346.784)" fill="#0a0a0a" stroke="#0a0a0a" stroke-width="0.4"/>
    <circle id="Ellipse_1" data-name="Ellipse 1" cx="1.603" cy="1.603" r="1.603" transform="translate(79.778 6.601)" fill="none" stroke="#0a0a0a" stroke-width="0.4"/>
    <g id="Groupe_2" data-name="Groupe 2" transform="translate(77.534 3.876)">
      <path id="Tracé_11" data-name="Tracé 11" d="M196.8,184.146a2.084,2.084,0,1,1,2.084-2.084A2.086,2.086,0,0,1,196.8,184.146Zm0-3.206a1.122,1.122,0,1,0,1.122,1.122A1.123,1.123,0,0,0,196.8,180.94Z" transform="translate(-192.949 -177.734)" fill="#0a0a0a" stroke="#0a0a0a" stroke-width="0.4"/>
      <path id="Tracé_12" data-name="Tracé 12" d="M146.7,114.939h-3.366a.481.481,0,1,1,0-.962H146.7a.481.481,0,0,1,0,.962Z" transform="translate(-142.852 -113.977)" fill="#0a0a0a" stroke="#0a0a0a" stroke-width="0.4"/>
      <path id="Tracé_13" data-name="Tracé 13" d="M298.26,114.939h-1.473a.481.481,0,1,1,0-.962h1.473a.481.481,0,1,1,0,.962Z" transform="translate(-291.09 -113.977)" fill="#0a0a0a" stroke="#0a0a0a" stroke-width="0.4"/>
    </g>
  </g>
</svg>
